<svg xmlns="http://www.w3.org/2000/svg" viewBox="0 0 100 80" fill="currentColor">
  <!-- Roue gauche -->
  <circle cx="16" cy="58" r="15"/>
  <circle cx="16" cy="58" r="6" fill="white"/>

  <!-- Roue droite -->
  <circle cx="84" cy="58" r="15"/>
  <circle cx="84" cy="58" r="6" fill="white"/>

  <!-- Axe reliant les roues -->
  <rect x="16" y="54" width="68" height="8" rx="4"/>

  <!-- Garde-boue gauche -->
  <path d="M4 50 Q6 30 20 28 L28 32 Q18 34 14 50 Z"/>

  <!-- Garde-boue droit -->
  <path d="M96 50 Q94 30 80 28 L72 32 Q82 34 86 50 Z"/>

  <!-- Corps central (réservoir + cadre) -->
  <path d="M26 50 L28 30 Q50 20 72 30 L74 50 Q60 56 40 56 Z"/>

  <!-- Siège -->
  <path d="M36 30 Q50 20 64 30 Q60 24 50 22 Q40 24 36 30 Z"/>

  <!-- Guidon gauche -->
  <rect x="30" y="17" width="14" height="5" rx="2.5"/>
  <!-- Guidon droit -->
  <rect x="56" y="17" width="14" height="5" rx="2.5"/>
  <!-- Colonne de direction -->
  <rect x="46" y="17" width="8" height="10" rx="2"/>
</svg>
